<svg width="30.000000" height="30.000000" viewBox="0 0 30 30" fill="none" xmlns="http://www.w3.org/2000/svg" xmlns:xlink="http://www.w3.org/1999/xlink">
	<desc>
			Created with Pixso.
	</desc>
	<defs/>
	<path id="18+" d="M16.1 11.04Q15.52 10.81 14.78 10.81Q14.05 10.81 13.47 11.04Q12.99 11.24 12.68 11.6Q12.62 11.66 12.57 11.73Q12.52 11.8 12.48 11.86Q12.24 12.28 12.24 12.84Q12.24 13.37 12.44 13.77Q12.51 13.91 12.6 14.03Q12.77 14.27 13.01 14.47Q13.36 14.77 13.79 15.01Q13.3 15.22 12.88 15.54Q12.58 15.77 12.36 16.07Q12.28 16.18 12.21 16.29Q11.96 16.73 11.96 17.32Q11.96 18.03 12.28 18.53Q12.28 18.54 12.29 18.55Q12.34 18.63 12.4 18.7Q12.72 19.11 13.26 19.34Q13.89 19.61 14.8 19.61Q15.65 19.61 16.27 19.33Q16.76 19.11 17.08 18.75Q17.17 18.64 17.25 18.53Q17.29 18.46 17.32 18.4Q17.6 17.92 17.6 17.28Q17.6 16.69 17.34 16.27L17.34 16.27Q17.08 15.84 16.64 15.52Q16.2 15.21 15.65 14.95Q16.11 14.73 16.49 14.44Q16.83 14.18 17.04 13.84Q17.07 13.8 17.1 13.76Q17.32 13.37 17.32 12.84Q17.32 12.23 17.04 11.8Q17.02 11.76 17 11.73Q16.94 11.65 16.88 11.58Q16.57 11.23 16.1 11.04ZM7.76 19.5L8.71 19.5L8.71 10.93L7.9 10.93L5.58 12.72L6.09 13.38L7.07 12.59Q7.3 12.4 7.46 12.27Q7.62 12.14 7.8 11.95Q7.78 12.16 7.77 12.37Q7.76 12.58 7.76 12.83Q7.76 13.08 7.76 13.42L7.76 19.5ZM13.64 11.93Q14.08 11.6 14.77 11.6Q15.48 11.6 15.92 11.93Q16.07 12.04 16.17 12.19Q16.35 12.47 16.35 12.88Q16.35 13.3 16.17 13.61Q16.16 13.62 16.16 13.62Q15.96 13.93 15.61 14.16Q15.26 14.39 14.82 14.57Q14.36 14.39 13.99 14.17Q13.62 13.95 13.41 13.64Q13.4 13.62 13.39 13.61Q13.2 13.31 13.2 12.89Q13.2 12.48 13.38 12.2Q13.48 12.05 13.64 11.93ZM24.45 14.87L22.04 14.87L22.04 12.37L21.24 12.37L21.24 14.87L18.82 14.87L18.82 15.66L21.24 15.66L21.24 18.15L22.04 18.15L22.04 15.66L24.45 15.66L24.45 14.87ZM13.06 18Q12.91 17.7 12.91 17.33Q12.91 16.88 13.11 16.54Q13.11 16.53 13.11 16.52Q13.31 16.18 13.69 15.91Q14.07 15.63 14.61 15.41L14.82 15.49Q15.38 15.7 15.79 15.96Q16.2 16.21 16.42 16.54Q16.48 16.63 16.52 16.72Q16.64 16.98 16.64 17.29Q16.64 17.71 16.47 18.02Q16.35 18.24 16.16 18.41Q15.67 18.83 14.78 18.83Q13.84 18.83 13.38 18.41Q13.18 18.22 13.06 18Z" fill="#A1A6B4" fill-opacity="1.000000" fill-rule="evenodd"/>
	<rect id="Frame 119" rx="14.500000" width="29.000000" height="29.000000" transform="translate(0.500000 0.500000)" stroke="#A1A6B4" stroke-opacity="1.000000" stroke-width="1.000000"/>
</svg>
